PathFileType	4	(X/Y/Z)	C:/Users/opensim2020/Desktop/walking_exp_matlab/subject06_walking20_straight_04.trc																																																																																																																															
DataRate	CameraRate	NumFrames	NumMarkers	Units	OrigDataRate	OrigDataStartFrame	OrigNumFrames																																																																																																																											
100	100	9	43	mm	100	2236	126																																																																																																																											
Frame#	Time	LFHD			RFHD			LBHD			RBHD			C7			T10			CLAV			STRN			RBAK			LSHO			LUPA			LELB			LFRM			LWRA			LWRB			LFIN			RSHO			RUPA			RELB			RFRM			RWRA			RWRB			RFIN			LASI			RASI			LPSI			RPSI			LTHI			LKNE			LTIB			LANK			LHEE			LTOE			RTHI			RKNE			RTIB			RANK			RHEE			RTOE			*39			*40			*41			*42		
		X1	Y1	Z1	X2	Y2	Z2	X3	Y3	Z3	X4	Y4	Z4	X5	Y5	Z5	X6	Y6	Z6	X7	Y7	Z7	X8	Y8	Z8	X9	Y9	Z9	X10	Y10	Z10	X11	Y11	Z11	X12	Y12	Z12	X13	Y13	Z13	X14	Y14	Z14	X15	Y15	Z15	X16	Y16	Z16	X17	Y17	Z17	X18	Y18	Z18	X19	Y19	Z19	X20	Y20	Z20	X21	Y21	Z21	X22	Y22	Z22	X23	Y23	Z23	X24	Y24	Z24	X25	Y25	Z25	X26	Y26	Z26	X27	Y27	Z27	X28	Y28	Z28	X29	Y29	Z29	X30	Y30	Z30	X31	Y31	Z31	X32	Y32	Z32	X33	Y33	Z33	X34	Y34	Z34	X35	Y35	Z35	X36	Y36	Z36	X37	Y37	Z37	X38	Y38	Z38	X39	Y39	Z39	X40	Y40	Z40	X41	Y41	Z41	X42	Y42	Z42	X43	Y43	Z43
																																																																																																																																		
79	0.78	-19.14397	1666.31738	-1511.41956	-31.62984	1649.06335	-1380.93311	-155.46022	1621.86011	-1525.48975	-166.0083	1610.16943	-1397.0321	-168.25308	1455.39441	-1471.38428	-198.10742	1125.65173	-1460.23425	-58.10456	1379.68323	-1467.00659	-13.44656	1206.68726	-1472.44104	-240.73213	1284.41333	-1392.67932	-110.91541	1411.3689	-1629.85168	-115.64527	1212.21094	-1708.51636	-123.44577	1099.44299	-1723.70105	-96.69341	951.99469	-1746.28418	-48.90429	833.31293	-1694.72351	-97.51167	833.18872	-1747.36182	-61.31647	749.862	-1741.40991	-109.24403	1410.74011	-1307.65845	-163.71225	1219.06238	-1217.86047	-165.28201	1096.30237	-1204.64343	-154.25874	976.13452	-1187.09973	-97.85385	836.05176	-1220.45886	-151.7005	838.13263	-1179.2583	-116.8746	761.29669	-1179.20337	-14.12205	972.80994	-1568.53308	-18.17403	975.66248	-1348.62756	-173.13269	994.34912	-1540.25671	-168.06584	991.0116	-1373.39319	-66.321	655.14978	-1622.27441	-59.30904	491.20428	-1595.55371	-126.32494	240.79283	-1590.85962	-157.94574	72.51503	-1545.99792	-203.13763	60.98806	-1503.55774	-17.55629	40.11586	-1537.42871	10.08117	646.49561	-1287.69104	59.92142	530.38361	-1307.46411	-62.26063	301.09167	-1321.32385	-155.13136	142.92259	-1371.52014	-197.03983	133.146	-1421.37244	-32.71963	56.14449	-1356.53711	-121.54357	1708.79773	-1458.67334	NaN	NaN	NaN	NaN	NaN	NaN	NaN	NaN	NaN
80	0.79	-4.17214	1666.1394	-1510.41882	-16.90065	1648.60876	-1380.00574	-140.48222	1621.98132	-1524.8678	-151.33005	1610.01416	-1396.52783	-153.63098	1455.18286	-1471.18079	-183.00682	1125.34045	-1460.31348	-43.40395	1379.71936	-1466.823	1.70477	1206.75867	-1472.78186	-225.93356	1283.94702	-1393.18713	-96.89644	1411.64026	-1629.60583	-98.37784	1212.80054	-1709.09998	-103.40721	1099.89563	-1725.06604	-70.80582	953.50928	-1747.59583	-16.16855	837.77466	-1696.48584	-66.25981	834.59705	-1747.62878	-25.45779	753.59949	-1742.32922	-94.71629	1410.19861	-1307.45361	-150.97528	1218.54639	-1218.51843	-154.16083	1095.78577	-1205.42078	-147.22691	975.29932	-1187.63867	-96.38113	832.67377	-1219.7384	-150.37723	837.20404	-1178.88562	-119.29012	758.62634	-1178.67761	-0.00825	972.08899	-1569.29126	-2.67453	975.41919	-1349.9176	-158.908	994.48047	-1539.89575	-152.41129	991.33875	-1373.0387	-57.2684	654.69183	-1622.67163	-53.47983	490.4498	-1596.20862	-123.84325	240.85364	-1591.1803	-157.565	72.92692	-1545.86267	-202.75009	61.73446	-1503.41223	-17.52083	39.97878	-1537.75549	29.05989	648.07361	-1287.7428	79.51627	532.57849	-1308.1427	-31.46119	296.3446	-1321.38416	-114.78539	132.54402	-1371.0979	-155.68204	119.9896	-1421.02966	13.02758	54.13113	-1355.35632	-106.51675	1708.67786	-1457.77063	NaN	NaN	NaN	NaN	NaN	NaN	NaN	NaN	NaN
81	0.8	10.79513	1665.62854	-1509.44958	-2.24816	1647.7915	-1379.08423	-125.59219	1621.59949	-1524.22717	-136.65703	1609.33325	-1395.97205	-138.96999	1454.48938	-1470.79517	-167.84598	1124.59351	-1460.17737	-28.63844	1379.25549	-1466.60229	16.83158	1206.43457	-1473.01868	-211.10721	1283.02856	-1393.48914	-82.76028	1411.49146	-1629.34045	-81.20452	1213.00244	-1709.59546	-83.54315	1100.07202	-1726.31433	-45.02223	954.99127	-1748.89355	16.71889	842.76007	-1698.24316	-35.16082	836.03137	-1747.42224	10.37333	757.9137	-1743.02771	-80.10932	1409.19617	-1307.12231	-138.31297	1217.73792	-1219.12549	-142.83893	1095.04199	-1206.39661	-140.07359	974.39478	-1188.04224	-94.37112	829.58923	-1218.74402	-148.45445	836.55579	-1178.51587	-121.04889	756.40729	-1178.12744	13.18807	970.79572	-1570.00769	13.06277	974.67517	-1351.14026	-144.82146	994.27008	-1539.41553	-136.27896	991.09686	-1372.42322	-48.04393	653.84052	-1622.80542	-47.15062	489.45279	-1596.6969	-121.04736	240.76462	-1591.35986	-157.05428	73.33871	-1545.73071	-202.50513	62.62133	-1503.17688	-17.26458	39.88287	-1537.8811	47.64331	649.31848	-1287.68481	98.44949	534.22522	-1308.52966	-0.86567	291.58649	-1320.85913	-73.43721	122.61032	-1370.60632	-113.68007	107.43343	-1420.53857	58.81527	52.32516	-1354.37585	-91.68382	1708.13147	-1456.89197	NaN	NaN	NaN	NaN	NaN	NaN	NaN	NaN	NaN
82	0.81	25.54572	1664.73755	-1508.41528	12.38428	1646.67944	-1378.13098	-110.67484	1620.7301	-1523.62878	-121.98066	1608.22583	-1395.36621	-124.24799	1453.41101	-1470.52869	-152.68283	1123.45654	-1459.86768	-13.73807	1378.41003	-1466.32715	31.92035	1205.54639	-1473.1676	-196.21649	1281.70605	-1393.7749	-68.3586	1410.91223	-1629.03113	-64.13592	1212.80298	-1710.03857	-63.80248	1099.96716	-1727.46448	-19.36156	956.4101	-1749.8728	48.83772	848.04187	-1699.58289	-3.85873	837.953	-1747.20605	46.09589	762.76306	-1743.44812	-65.44836	1407.8457	-1306.71387	-125.7317	1216.64087	-1219.65747	-132.03575	1093.94165	-1206.87183	-132.78136	973.45001	-1188.39832	-92.52852	826.89465	-1217.70801	-146.90732	835.91187	-1177.7926	-122.44482	754.55493	-1177.29675	26.87373	969.1889	-1570.93201	28.82645	973.48132	-1352.41992	-130.83073	993.63757	-1538.77795	-120.54475	990.388	-1371.76843	-38.62041	652.84906	-1622.83997	-40.39942	488.26239	-1597.02771	-117.95126	240.60957	-1591.43286	-156.40004	73.7174	-1545.4574	-201.98979	63.45496	-1502.76465	-17.025	39.73741	-1537.99353	65.61961	649.98914	-1287.44507	116.77714	535.02246	-1308.67542	29.3683	286.81833	-1320.41577	-31.83468	113.24459	-1369.94812	-70.74226	95.49012	-1420.21069	104.4446	51.18559	-1352.81079	-76.94154	1707.11951	-1456.02747	NaN	NaN	NaN	NaN	NaN	NaN	NaN	NaN	NaN
83	0.82	40.43502	1663.57825	-1507.45837	26.95274	1645.23083	-1377.14099	-95.81413	1619.44482	-1522.95752	-107.33205	1606.64917	-1394.79626	-109.31492	1452.01587	-1470.08508	-137.50677	1122.02295	-1459.3877	1.20285	1377.11389	-1465.95703	46.91468	1204.2572	-1473.32104	-181.28436	1279.99854	-1393.94958	-53.82858	1409.87646	-1628.55261	-47.16437	1212.28015	-1710.33936	-44.22053	1099.51953	-1728.50452	6.23325	957.81866	-1750.68127	80.21252	853.67999	-1700.7124	27.36507	840.0658	-1746.78052	81.70166	768.24628	-1743.68701	-50.66254	1406.10742	-1306.21887	-113.19418	1215.22266	-1220.13428	-120.98041	1092.729	-1207.44128	-125.47484	972.39844	-1188.56165	-89.9932	823.83929	-1217	-144.13939	835.50867	-1177.177	-123.18037	752.98944	-1176.38074	40.44301	967.26514	-1571.86792	44.62127	971.89807	-1353.5304	-116.95671	992.58258	-1537.98792	-105.00542	989.33557	-1371.00952	-29.04031	651.5965	-1622.82056	-33.40126	486.94678	-1597.25574	-114.69761	240.42352	-1591.30457	-155.72598	74.19908	-1545.20349	-201.37596	64.35204	-1502.15613	-16.72601	39.75718	-1538.12451	83.23682	650.12488	-1287.06226	134.7281	535.28088	-1308.71899	59.28947	282.32208	-1319.99792	10.03407	104.71904	-1369.15295	-27.61012	85.01832	-1419.45227	149.64386	50.29164	-1350.92041	-62.27243	1705.74585	-1455.12744	NaN	NaN	NaN	NaN	NaN	NaN	NaN	NaN	NaN
84	0.83	55.15229	1662.19263	-1506.39783	41.52398	1643.59338	-1376.14954	-80.81155	1617.7926	-1522.1427	-92.65649	1604.71301	-1394.16382	-94.37594	1450.36853	-1469.58569	-122.43855	1120.35217	-1458.81421	16.1699	1375.48596	-1465.36426	61.98226	1202.51196	-1473.45959	-166.23647	1277.94336	-1393.90161	-39.16861	1408.54663	-1628.05469	-30.24902	1211.40271	-1710.63354	-24.80086	1098.8064	-1729.38379	31.51058	959.00848	-1750.78809	111.28687	859.76605	-1701.31946	58.48908	842.67542	-1746.19946	117.08195	774.4328	-1743.60852	-35.72584	1404.0813	-1305.65149	-100.60244	1213.64429	-1220.51086	-110.02457	1091.30139	-1207.84949	-118.40736	971.34241	-1188.68591	-87.22477	821.29584	-1215.89539	-141.12244	835.14465	-1176.52283	-123.34315	751.69275	-1175.26965	53.95387	965.03186	-1572.85718	60.40185	970.05939	-1354.54456	-103.16032	991.07965	-1537.00317	-89.43333	987.68207	-1370.12146	-19.26595	650.17224	-1622.75195	-26.18894	485.46573	-1597.401	-111.50857	240.2112	-1591.1825	-155.16618	74.7526	-1544.61108	-200.74823	65.33265	-1501.42102	-16.44599	39.69033	-1538.25134	100.28518	649.55017	-1286.61353	152.23373	534.92596	-1308.7677	88.85013	277.97549	-1319.49768	51.93748	97.22755	-1367.84656	15.89666	75.58392	-1418.60693	194.3506	49.41446	-1349.23596	-47.68837	1704.04822	-1454.2002	NaN	NaN	NaN	NaN	NaN	NaN	NaN	NaN	NaN
85	0.84	69.87679	1660.66199	-1505.33203	56.06976	1641.75684	-1375.10913	-65.99689	1615.88391	-1521.51001	-77.91204	1602.54004	-1393.44043	-79.24829	1448.51965	-1469.01538	-107.38564	1118.43152	-1458.06665	31.40294	1373.54761	-1464.8783	77.02145	1200.45361	-1473.54749	-151.18364	1275.68945	-1393.72607	-24.3037	1406.84485	-1627.48914	-13.36714	1210.20142	-1710.69678	-5.59454	1097.88452	-1730.11707	56.6102	960.61713	-1751.06482	141.63124	866.22229	-1701.53259	89.36806	845.69086	-1745.48694	152.04185	781.36603	-1743.2854	-20.69308	1401.77844	-1304.99841	-87.94701	1211.91064	-1220.83459	-99.30603	1089.74927	-1208.2627	-110.84692	970.01666	-1188.81384	-84.22409	818.82703	-1215.18701	-137.65973	834.84857	-1175.83521	-122.71941	750.78772	-1174.05713	67.6721	962.80536	-1573.8667	76.20559	967.90973	-1355.37048	-89.39678	989.20215	-1535.9093	-73.8928	985.59485	-1369.07483	-9.31926	648.59778	-1622.87805	-18.68651	483.97531	-1597.41443	-108.21394	240.09093	-1590.90649	-154.39104	75.3605	-1543.95288	-199.99382	66.37432	-1500.3512	-16.09368	39.58528	-1538.24194	116.39198	648.01801	-1286.1084	169.08398	533.80371	-1308.74658	118.46991	273.83475	-1318.71594	93.65444	90.70875	-1366.24512	59.53268	67.6707	-1418.10437	238.53218	48.82962	-1347.76672	-33.20657	1702.09241	-1453.21838	NaN	NaN	NaN	NaN	NaN	NaN	NaN	NaN	NaN
86	0.85	84.61304	1658.92346	-1504.19507	70.71569	1639.7395	-1374.05969	-51.03306	1613.72754	-1520.7041	-63.15716	1600.06409	-1392.65991	-64.05879	1446.53052	-1468.39746	-92.38274	1116.31018	-1457.18469	46.6175	1371.40857	-1464.27185	92.08667	1198.11853	-1473.56116	-136.09457	1273.32898	-1393.51062	-9.38755	1404.88159	-1626.82898	3.47851	1208.79346	-1710.62048	13.26971	1096.7002	-1730.6178	81.37855	962.38208	-1751.07922	171.43462	873.16028	-1701.26489	119.98132	849.21265	-1744.42566	186.43335	789.05212	-1742.6228	-5.43265	1399.29272	-1304.26685	-75.26157	1210.03198	-1221.00354	-88.1787	1088.10974	-1208.30872	-102.70035	968.90009	-1188.43616	-80.34936	816.64825	-1213.88562	-133.64291	834.49054	-1175.17383	-121.54047	750.00916	-1172.63513	81.39301	960.47382	-1574.59973	91.99149	965.5213	-1355.92395	-75.29213	986.95764	-1534.76282	-58.57699	983.16919	-1368.14441	0.28311	646.95056	-1623.26978	-11.00917	482.46121	-1597.39404	-104.72237	240.08308	-1590.50781	-153.52368	76.02577	-1543.13672	-198.95976	67.64896	-1499.52319	-15.70367	39.45772	-1538.13281	131.60217	645.51251	-1285.65649	185.32448	531.84363	-1308.84937	147.8943	269.84515	-1317.81006	134.85419	85.18682	-1364.80103	101.97526	61.4611	-1416.53394	282.05197	47.5729	-1347.19128	-18.65491	1699.91284	-1452.22009	NaN	NaN	NaN	NaN	NaN	NaN	NaN	NaN	NaN
87	0.86	99.34163	1656.97021	-1502.99585	85.22133	1637.53784	-1372.92505	-36.08269	1611.36523	-1519.8551	-48.40619	1597.43079	-1391.93713	-48.84015	1444.36206	-1467.67517	-77.47862	1114.10498	-1456.33655	61.93988	1369.09717	-1463.67883	107.03155	1195.57068	-1473.44055	-121.00362	1270.93079	-1393.14209	5.81454	1402.81079	-1626.22546	20.36639	1207.11108	-1710.49902	31.76889	1095.38745	-1730.95361	105.69605	964.25592	-1750.84326	200.31705	880.56183	-1700.64978	150.11755	853.3504	-1743.328	220.09363	797.58032	-1741.64819	9.90371	1396.68835	-1303.49036	-62.37986	1208.1217	-1221.07019	-76.97787	1086.43408	-1208.27295	-94.41612	967.71722	-1188.07385	-75.73533	814.93414	-1212.50269	-129.31615	834.16931	-1174.50732	-119.31938	749.52777	-1171.26489	95.22996	958.12213	-1575.22791	107.66583	962.79022	-1356.34692	-61.35805	984.64435	-1533.58716	-42.80431	980.32489	-1366.64636	11.06826	645.58533	-1623.0459	-3.27886	481.08057	-1597.45667	-101.37	240.17856	-1590.08936	-152.72153	76.9103	-1542.35449	-198.47841	69.32189	-1498.5177	-15.39861	39.40804	-1538.14404	145.79446	642.26978	-1285.21265	200.98909	529.20068	-1309.03577	177.07916	266.24048	-1316.95325	175.35541	80.96338	-1362.18359	143.93944	56.57404	-1414.24463	325.10559	45.68752	-1348.06531	-4.13313	1697.52551	-1451.14771	NaN	NaN	NaN	NaN	NaN	NaN	NaN	NaN	NaN
